<svg width="33" height="33" viewBox="0 0 33 33" fill="none" xmlns="http://www.w3.org/2000/svg">
<path d="M6.48484 23.2075H8.88484V28.0849L15.006 23.2075H20.8848C22.2084 23.2075 23.2848 22.1355 23.2848 20.8172V11.256C23.2848 9.93777 22.2084 8.86572 20.8848 8.86572H6.48484C5.16124 8.86572 4.08484 9.93777 4.08484 11.256V20.8172C4.08484 22.1355 5.16124 23.2075 6.48484 23.2075Z" fill="#5318FA"/>
<path d="M25.6848 4.08481H11.2848C9.96117 4.08481 8.88477 5.15686 8.88477 6.47511H23.2848C24.6084 6.47511 25.6848 7.54716 25.6848 8.86541V18.4266C27.0084 18.4266 28.0848 17.3546 28.0848 16.0363V6.47511C28.0848 5.15686 27.0084 4.08481 25.6848 4.08481Z" fill="#5318FA"/>
</svg>
